<?xml version="1.0" encoding="UTF-8"?>
<svg width="13px" height="9px" viewBox="0 0 13 9" version="1.1" xmlns="http://www.w3.org/2000/svg" xmlns:xlink="http://www.w3.org/1999/xlink">
    <!-- Generator: Sketch 53.2 (72643) - https://sketchapp.com -->
    <title>Shape@1x</title>
    <desc>Created with Sketch.</desc>
    <g id="Page-1" stroke="none" stroke-width="1" fill="none" fill-rule="evenodd">
        <g id="A&amp;F-" transform="translate(-121.000000, -942.000000)" fill="#33475B" fill-rule="nonzero">
            <g id="Group-26" transform="translate(121.000000, 395.000000)">
                <g id="Group-23" transform="translate(0.000000, 478.000000)">
                    <g id="Group-22" transform="translate(0.000000, 54.000000)">
                        <g id="Group-21">
                            <g id="Group-2" transform="translate(0.000000, 15.000000)">
                                <path d="M11.5774869,0.229461756 L4.17905759,7.11331445 L1.42251309,4.51912181 C1.09581152,4.2131728 0.571727749,4.2131728 0.245026178,4.51912181 C-0.0816753927,4.82507082 -0.0816753927,5.31586402 0.245026178,5.62181303 L3.58691099,8.77053824 C3.7434555,8.91713881 3.95445026,9 4.17905759,9 L4.17905759,9 C4.39685864,9 4.6078534,8.91713881 4.76439791,8.77053824 L12.7549738,1.33215297 C13.0816754,1.02620397 13.0816754,0.535410765 12.7549738,0.229461756 C12.4282723,-0.0764872521 11.9041885,-0.0764872521 11.5774869,0.229461756 Z" id="Shape"></path>
                            </g>
                        </g>
                    </g>
                </g>
            </g>
        </g>
    </g>
</svg>